<svg id="Layer_1" data-name="Layer 1" xmlns="http://www.w3.org/2000/svg" xmlns:xlink="http://www.w3.org/1999/xlink" viewBox="0 0 12 12"><defs><style>.cls-1,.cls-3{clip-rule:evenodd;}.cls-2,.cls-3{fill:none;}.cls-4{fill-rule:evenodd;}.cls-5{clip-path:url(#clip-path);}.cls-6{clip-path:url(#clip-path-2);}.cls-7{clip-path:url(#clip-path-3);}.cls-8{clip-path:url(#clip-path-4);}.cls-9{clip-path:url(#clip-path-5);}.cls-10{clip-path:url(#clip-path-6);}.cls-11{clip-path:url(#clip-path-7);}.cls-12{fill:#343739;}</style><clipPath id="clip-path"><path class="cls-1" d="M35.63,45a0.64,0.64,0,0,1-.45-1.08L46.92,32.19a0.63,0.63,0,0,1,.9.9L36.08,44.81a0.63,0.63,0,0,1-.45.19"/></clipPath><clipPath id="clip-path-2"><path class="cls-1" d="M47.37,45a0.64,0.64,0,0,0,.45-1.08L36.08,32.19a0.63,0.63,0,0,0-.9.9L46.92,44.81a0.63,0.63,0,0,0,.45.19"/></clipPath><clipPath id="clip-path-3"><rect class="cls-2" x="-56" y="-65" width="11" height="1"/></clipPath><clipPath id="clip-path-4"><polygon class="cls-3" points="-48 -55 -53 -55 -53 -58.56 -54.84 -60.52 -55.33 -64.11 -54.39 -64.24 -53.94 -60.95 -52 -58.93 -52 -56 -49 -56 -49 -58.93 -47.11 -60.95 -46.66 -64.24 -45.73 -64.11 -46.2 -60.52 -48 -58.56 -48 -55"/></clipPath><clipPath id="clip-path-5"><rect class="cls-2" x="-53" y="-70.02" width="1" height="5"/></clipPath><clipPath id="clip-path-6"><rect class="cls-2" x="-49" y="-70" width="1" height="5"/></clipPath><clipPath id="clip-path-7"><path class="cls-3" d="M-65-60.33v-3.5a4.49,4.49,0,0,0-3.68-4.3,1.09,1.09,0,0,0,.29-0.74A1.1,1.1,0,0,0-69.5-70a1.1,1.1,0,0,0-1.1,1.1,1.09,1.09,0,0,0,.29.74A4.49,4.49,0,0,0-74-63.83v3.5L-75.62-57h3.42a2.75,2.75,0,0,0,2.5,1.9,2.75,2.75,0,0,0,2.5-1.9h3.83ZM-69.71-56a1.81,1.81,0,0,1-1.5-1h3A1.81,1.81,0,0,1-69.71-56Zm-4.18-2L-73-60.07v-3.75A3.41,3.41,0,0,1-70.12-67h1.23A3.41,3.41,0,0,1-66-63.83v3.75L-65.11-58h-8.78Z"/></clipPath></defs><title>export</title><path class="cls-4" d="M35.63,45a0.64,0.64,0,0,1-.45-1.08L46.92,32.19a0.63,0.63,0,0,1,.9.9L36.08,44.81a0.63,0.63,0,0,1-.45.19"/><g class="cls-5"><rect x="-246.6" y="-320" width="1550.93" height="1565.87"/></g><path class="cls-4" d="M47.37,45a0.64,0.64,0,0,0,.45-1.08L36.08,32.19a0.63,0.63,0,0,0-.9.9L46.92,44.81a0.63,0.63,0,0,0,.45.19"/><g class="cls-6"><rect x="-1221.33" y="-320" width="1550.93" height="1565.87"/></g><path class="cls-12" d="M8.5,7a0.5,0.5,0,0,0-.5.5L8.07,11,1,11.06V4H3.5A0.5,0.5,0,0,0,4,3.5V1l4,0V3.5a0.5,0.5,0,0,0,1,0V0.94A0.93,0.93,0,0,0,8.07,0H2.81a0.93,0.93,0,0,0-.68.3l-1.88,2A0.94,0.94,0,0,0,0,3v8.1A0.93,0.93,0,0,0,.93,12H8.07A0.93,0.93,0,0,0,9,11.06V7.5A0.5,0.5,0,0,0,8.5,7ZM2.81,1H3V3H1Z"/><path class="cls-12" d="M12,5.69a0.5,0.5,0,0,0-.11-0.55l-1.5-1.5a0.5,0.5,0,0,0-.71.71L10.29,5H5A0.5,0.5,0,0,0,5,6h5.29l-0.65.65a0.5,0.5,0,1,0,.71.71l1.5-1.5A0.5,0.5,0,0,0,12,5.69Z"/></svg>